# Alias OBJ Model File
# Exported from SketchUp, (c) 2000-2012 Trimble Navigation Limited
# File units = inches

mtllib woman_stand.mtl

g Mesh1 G_2d_silhouette__woman_talking1 Model

usemtl White
v 1457.05 2.92166 -1064.37
vt 2.62092 1.06232
vn -0.515089 5.6263e-17 0.857136
v 1454.8 1.85934 -1065.72
vt 0 0
v 1456.68 1.85934 -1064.59
vt 2.1875 -8.88167e-32
f 1/1/1 2/2/1 3/3/1

v 1454.49 2.79699 -1065.91
vt -0.368389 0.937644
f 2/2/1 1/1/1 4/4/1

usemtl _Color_009_13
vn 0.515089 -5.6263e-17 -0.857136
f 3/3/2 2/2/2 1/1/2

f 4/4/2 1/1/2 2/2/2

usemtl White
v 1454.55 4.60986 -1065.87
vt -0.299589 2.75051
f 4/4/1 1/1/1 5/5/1

usemtl _Color_009_13
f 5/5/2 1/1/2 4/4/2

usemtl White
v 1456.97 5.79453 -1064.42
vt 2.52627 3.93519
f 5/5/1 1/1/1 6/6/1

usemtl _Color_009_13
f 6/6/2 1/1/2 5/5/2

usemtl White
v 1454.49 6.40904 -1065.91
vt -0.368389 4.5497
f 5/5/1 6/6/1 7/7/1

usemtl _Color_009_13
f 7/7/2 6/6/2 5/5/2

usemtl White
v 1456.41 8.7756 -1064.75
vt 1.87362 6.91626
f 7/7/1 6/6/1 8/8/1

usemtl _Color_009_13
f 8/8/2 6/6/2 7/7/2

usemtl White
v 1454.3 7.11503 -1066.02
vt -0.584165 5.25569
f 7/7/1 8/8/1 9/9/1

usemtl _Color_009_13
f 9/9/2 8/8/2 7/7/2

usemtl White
v 1454.27 8.02831 -1066.04
vt -0.617488 6.16896
f 9/9/1 8/8/1 10/10/1

usemtl _Color_009_13
f 10/10/2 8/8/2 9/9/2

usemtl White
v 1454.6 9.76566 -1065.84
vt -0.242446 7.90632
f 10/10/1 8/8/1 11/11/1

usemtl _Color_009_13
f 11/11/2 8/8/2 10/10/2

usemtl White
v 1457.72 15.0816 -1063.96
vt 3.40774 13.2223
f 11/11/1 8/8/1 12/12/1

usemtl _Color_009_13
f 12/12/2 8/8/2 11/11/2

usemtl White
v 1454.92 11.5159 -1065.65
vt 0.129807 9.65659
f 11/11/1 12/12/1 13/13/1

usemtl _Color_009_13
f 13/13/2 12/12/2 11/11/2

usemtl White
v 1454.98 14.123 -1065.61
vt 0.205196 12.2636
f 13/13/1 12/12/1 14/14/1

usemtl _Color_009_13
f 14/14/2 12/12/2 13/13/2

usemtl White
v 1454.81 16.6226 -1065.72
vt 0.0052582 14.7632
f 14/14/1 12/12/1 15/15/1

usemtl _Color_009_13
f 15/15/2 12/12/2 14/14/2

usemtl White
v 1458.52 21.9204 -1063.48
vt 4.33985 20.0611
f 15/15/1 12/12/1 16/16/1

usemtl _Color_009_13
f 16/16/2 12/12/2 15/15/2

usemtl White
v 1455 19.6523 -1065.6
vt 0.230156 17.793
f 15/15/1 16/16/1 17/17/1

usemtl _Color_009_13
f 17/17/2 16/16/2 15/15/2

usemtl White
v 1455.2 21.2537 -1065.48
vt 0.466143 19.3944
f 17/17/1 16/16/1 18/18/1

usemtl _Color_009_13
f 18/18/2 16/16/2 17/17/2

usemtl White
v 1445.98 22.0389 -1071.02
vt -10.2919 20.1795
f 19/19/1 18/18/1 16/16/1

v 1447.44 21.1066 -1070.14
vt -8.58889 19.2473
f 20/20/1 18/18/1 19/19/1

v 1450.81 20.3709 -1068.12
vt -4.6632 18.5115
f 20/20/1 21/21/1 18/18/1

v 1450.56 18.8617 -1068.27
vt -4.94605 17.0023
f 20/20/1 22/22/1 21/21/1

v 1447.2 18.8242 -1070.29
vt -8.87498 16.9648
f 23/23/1 22/22/1 20/20/1

v 1446.8 16.4979 -1070.53
vt -9.33631 14.6386
f 24/24/1 22/22/1 23/23/1

v 1450.32 16.1244 -1068.41
vt -5.22593 14.265
f 24/24/1 25/25/1 22/22/1

v 1446.73 14.6199 -1070.57
vt -9.41905 12.7606
f 26/26/1 25/25/1 24/24/1

v 1449.57 13.7424 -1068.87
vt -6.11032 11.883
f 26/26/1 27/27/1 25/25/1

v 1446.91 12.8859 -1070.46
vt -9.21176 11.0265
f 28/28/1 27/27/1 26/26/1

v 1448.83 11.2668 -1069.31
vt -6.96975 9.40749
f 28/28/1 29/29/1 27/27/1

v 1446.85 10.4511 -1070.5
vt -9.28233 8.59178
f 30/30/1 29/29/1 28/28/1

v 1448.58 9.78289 -1069.46
vt -7.26142 7.92355
f 30/30/1 31/31/1 29/29/1

v 1448.62 8.15298 -1069.44
vt -7.21885 6.29364
f 30/30/1 32/32/1 31/31/1

v 1446.59 8.02831 -1070.66
vt -9.58541 6.16896
f 33/33/1 32/32/1 30/30/1

v 1448.75 7.35045 -1069.36
vt -7.06769 5.4911
f 33/33/1 34/34/1 32/32/1

v 1448.72 6.40904 -1069.37
vt -7.0943 4.5497
f 33/33/1 35/35/1 34/34/1

v 1448.41 5.96938 -1069.56
vt -7.45667 4.11004
f 33/33/1 36/36/1 35/35/1

v 1448.08 5.53732 -1069.76
vt -7.84159 3.67798
f 33/33/1 37/37/1 36/36/1

v 1445.41 5.41037 -1071.36
vt -10.9581 3.55102
f 38/38/1 37/37/1 33/33/1

v 1447.63 3.77843 -1070.03
vt -8.374 1.91909
f 38/38/1 39/39/1 37/37/1

v 1444.67 2.54789 -1071.81
vt -11.8274 0.688546
f 40/40/1 39/39/1 38/38/1

v 1444.92 1.85934 -1071.66
vt -11.5301 4.68144e-31
f 41/41/1 39/39/1 40/40/1

v 1447.18 1.85934 -1070.3
vt -8.88907 3.5591e-30
f 39/39/1 41/41/1 42/42/1

usemtl _Color_009_13
f 42/42/2 41/41/2 39/39/2

f 40/40/2 39/39/2 41/41/2

f 38/38/2 39/39/2 40/40/2

f 37/37/2 39/39/2 38/38/2

f 33/33/2 37/37/2 38/38/2

f 36/36/2 37/37/2 33/33/2

f 35/35/2 36/36/2 33/33/2

f 34/34/2 35/35/2 33/33/2

f 32/32/2 34/34/2 33/33/2

f 30/30/2 32/32/2 33/33/2

f 31/31/2 32/32/2 30/30/2

f 29/29/2 31/31/2 30/30/2

f 28/28/2 29/29/2 30/30/2

f 27/27/2 29/29/2 28/28/2

f 26/26/2 27/27/2 28/28/2

f 25/25/2 27/27/2 26/26/2

f 24/24/2 25/25/2 26/26/2

f 22/22/2 25/25/2 24/24/2

f 23/23/2 22/22/2 24/24/2

f 20/20/2 22/22/2 23/23/2

f 21/21/2 22/22/2 20/20/2

f 18/18/2 21/21/2 20/20/2

f 19/19/2 18/18/2 20/20/2

f 16/16/2 18/18/2 19/19/2

usemtl White
v 1461.61 22.5392 -1061.63
vt 7.93485 20.6798
f 19/19/1 16/16/1 43/43/1

usemtl _Color_009_13
f 43/43/2 16/16/2 19/19/2

usemtl White
v 1444.99 23.4732 -1071.62
vt -11.4536 21.6138
f 19/19/1 43/43/1 44/44/1

usemtl _Color_009_13
f 44/44/2 43/43/2 19/19/2

usemtl White
v 1461.43 23.8467 -1061.74
vt 7.72769 21.9873
f 44/44/1 43/43/1 45/45/1

usemtl _Color_009_13
f 45/45/2 43/43/2 44/44/2

usemtl White
v 1445.58 26.0442 -1071.26
vt -10.7669 24.1849
f 44/44/1 45/45/1 46/46/1

usemtl _Color_009_13
f 46/46/2 45/45/2 44/44/2

usemtl White
v 1461.71 26.4813 -1061.57
vt 8.05952 24.622
f 46/46/1 45/45/1 47/47/1

usemtl _Color_009_13
f 47/47/2 45/45/2 46/46/2

usemtl White
v 1446.48 28.3307 -1070.72
vt -9.70996 26.4714
f 46/46/1 47/47/1 48/48/1

usemtl _Color_009_13
f 48/48/2 47/47/2 46/46/2

usemtl White
v 1461.85 29.4518 -1061.48
vt 8.22588 27.5924
f 48/48/1 47/47/1 49/49/1

usemtl _Color_009_13
f 49/49/2 47/47/2 48/48/2

usemtl White
v 1447.49 31.813 -1070.11
vt -8.5282 29.9537
f 48/48/1 49/49/1 50/50/1

usemtl _Color_009_13
f 50/50/2 49/49/2 48/48/2

usemtl White
v 1462.02 31.0377 -1061.38
vt 8.42354 29.1783
f 50/50/1 49/49/1 51/51/1

usemtl _Color_009_13
f 51/51/2 49/49/2 50/50/2

usemtl White
v 1461.87 39.4303 -1061.47
vt 8.24232 37.571
f 50/50/1 51/51/1 52/52/1

usemtl _Color_009_13
f 52/52/2 51/51/2 50/50/2

usemtl White
v 1448.51 35.3057 -1069.5
vt -7.3434 33.4464
f 50/50/1 52/52/1 53/53/1

usemtl _Color_009_13
f 53/53/2 52/52/2 50/50/2

usemtl White
v 1449.04 36.6173 -1069.18
vt -6.71888 34.758
f 53/53/1 52/52/1 54/54/1

usemtl _Color_009_13
f 54/54/2 52/52/2 53/53/2

usemtl White
v 1449.58 37.9214 -1068.86
vt -6.0979 36.062
f 54/54/1 52/52/1 55/55/1

usemtl _Color_009_13
f 55/55/2 52/52/2 54/54/2

usemtl White
v 1450.1 41.3244 -1068.55
vt -5.49062 39.465
f 55/55/1 52/52/1 56/56/1

usemtl _Color_009_13
f 56/56/2 52/52/2 55/55/2

usemtl White
v 1461.52 41.7379 -1061.68
vt 7.83876 39.8786
f 56/56/1 52/52/1 57/57/1

usemtl _Color_009_13
f 57/57/2 52/52/2 56/56/2

usemtl White
v 1450.26 43.1104 -1068.45
vt -5.296 41.251
f 56/56/1 57/57/1 58/58/1

usemtl _Color_009_13
f 58/58/2 57/57/2 56/56/2

usemtl White
v 1460.36 45.7684 -1062.38
vt 6.48219 43.909
f 58/58/1 57/57/1 59/59/1

usemtl _Color_009_13
f 59/59/2 57/57/2 58/58/2

usemtl White
v 1450.43 44.8964 -1068.35
vt -5.10138 43.037
f 58/58/1 59/59/1 60/60/1

usemtl _Color_009_13
f 60/60/2 59/59/2 58/58/2

usemtl White
v 1450.84 48.4578 -1068.1
vt -4.62333 46.5984
f 60/60/1 59/59/1 61/61/1

usemtl _Color_009_13
f 61/61/2 59/59/2 60/60/2

usemtl White
v 1462.25 47.4766 -1061.24
vt 8.69088 45.6172
f 61/61/1 59/59/1 62/62/1

usemtl _Color_009_13
f 62/62/2 59/59/2 61/61/2

usemtl White
v 1461.11 45.7684 -1061.93
vt 7.35404 43.909
f 62/62/1 59/59/1 63/63/1

usemtl _Color_009_13
f 63/63/2 59/59/2 62/62/2

usemtl White
v 1461 49.0066 -1061.99
vt 7.22949 47.1473
f 61/61/1 62/62/1 64/64/1

usemtl _Color_009_13
f 64/64/2 62/62/2 61/61/2

usemtl White
v 1463.24 49.3804 -1060.65
vt 9.84515 47.5211
f 64/64/1 62/62/1 65/65/1

usemtl _Color_009_13
f 65/65/2 62/62/2 64/64/2

usemtl White
v 1461.75 50.3768 -1061.55
vt 8.10133 48.5175
f 64/64/1 65/65/1 66/66/1

usemtl _Color_009_13
f 66/66/2 65/65/2 64/64/2

usemtl White
v 1464.36 50.9389 -1059.97
vt 11.1507 49.0795
f 66/66/1 65/65/1 67/67/1

usemtl _Color_009_13
f 67/67/2 65/65/2 66/66/2

usemtl White
v 1462.5 51.747 -1061.1
vt 8.97318 49.8876
f 66/66/1 67/67/1 68/68/1

usemtl _Color_009_13
f 68/68/2 67/67/2 66/66/2

usemtl White
v 1465.48 52.4943 -1059.3
vt 12.4607 50.6349
f 68/68/1 67/67/1 69/69/1

usemtl _Color_009_13
f 69/69/2 67/67/2 68/68/2

usemtl White
v 1463.02 53.2492 -1060.78
vt 9.58972 51.3898
f 68/68/1 69/69/1 70/70/1

usemtl _Color_009_13
f 70/70/2 69/69/2 68/68/2

usemtl White
v 1466.1 53.849 -1058.93
vt 13.1805 51.9896
f 70/70/1 69/69/1 71/71/1

usemtl _Color_009_13
f 71/71/2 69/69/2 70/70/2

usemtl White
v 1463.67 54.6117 -1060.39
vt 10.3433 52.7524
f 70/70/1 71/71/1 72/72/1

usemtl _Color_009_13
f 72/72/2 71/71/2 70/70/2

usemtl White
v 1466.34 55.2343 -1058.79
vt 13.4572 53.375
f 72/72/1 71/71/1 73/73/1

usemtl _Color_009_13
f 73/73/2 71/71/2 72/72/2

usemtl White
v 1462.47 56.5097 -1061.11
vt 8.94125 54.6504
f 72/72/1 73/73/1 74/74/1

usemtl _Color_009_13
f 74/74/2 73/73/2 72/72/2

usemtl White
v 1465.48 56.8843 -1059.3
vt 12.4549 55.0249
f 74/74/1 73/73/1 75/75/1

usemtl _Color_009_13
f 75/75/2 73/73/2 74/74/2

usemtl White
v 1461.43 57.4779 -1061.74
vt 7.72769 55.6185
f 74/74/1 75/75/1 76/76/1

usemtl _Color_009_13
f 76/76/2 75/75/2 74/74/2

usemtl White
v 1464.42 58.3482 -1059.94
vt 11.2152 56.4889
f 76/76/1 75/75/1 77/77/1

usemtl _Color_009_13
f 77/77/2 75/75/2 76/76/2

usemtl White
v 1460.89 57.9747 -1062.06
vt 7.10494 56.1153
f 76/76/1 77/77/1 78/78/1

usemtl _Color_009_13
f 78/78/2 77/77/2 76/76/2

usemtl White
v 1448.02 60.137 -1069.79
vt -7.91255 58.2776
f 79/79/1 78/78/1 77/77/1

v 1447.55 57.7256 -1070.08
vt -8.46434 55.8662
f 80/80/1 78/78/1 79/79/1

v 1460.47 57.1557 -1062.32
vt 6.60649 55.2963
f 80/80/1 81/81/1 78/78/1

v 1460.36 55.9816 -1062.38
vt 6.48219 54.1223
f 80/80/1 82/82/1 81/81/1

v 1449.87 55.7226 -1068.68
vt -5.75811 53.8633
f 80/80/1 83/83/1 82/82/1

v 1446.75 55.4941 -1070.56
vt -9.40131 53.6347
f 84/84/1 83/83/1 80/80/1

v 1445.84 53.366 -1071.1
vt -10.4573 51.5066
f 85/85/1 83/83/1 84/84/1

v 1448.04 52.1664 -1069.78
vt -7.88543 50.307
f 85/85/1 86/86/1 83/83/1

v 1443.33 52.9983 -1072.61
vt -13.3875 51.1389
f 87/87/1 86/86/1 85/85/1

v 1444.24 51.3732 -1072.07
vt -12.3256 49.5138
f 88/88/1 86/86/1 87/87/1

v 1444.45 50.748 -1071.94
vt -12.0796 48.8887
f 89/89/1 86/86/1 88/88/1

v 1444.67 50.1277 -1071.81
vt -11.8274 48.2684
f 90/90/1 86/86/1 89/89/1

v 1447.12 50.1277 -1070.33
vt -8.96266 48.2684
f 90/90/1 91/91/1 86/86/1

v 1445.15 49.6916 -1071.52
vt -11.2669 47.8322
f 92/92/1 91/91/1 90/90/1

v 1446.6 49.6754 -1070.65
vt -9.57185 47.816
f 92/92/1 93/93/1 91/91/1

v 1445.63 49.2557 -1071.23
vt -10.7063 47.3964
f 94/94/1 93/93/1 92/92/1

v 1445.84 49.2557 -1071.1
vt -10.4573 47.3964
f 95/95/1 93/93/1 94/94/1

v 1446.05 49.2557 -1070.98
vt -10.2082 47.3964
f 93/93/1 95/95/1 96/96/1

usemtl _Color_009_13
f 96/96/2 95/95/2 93/93/2

f 94/94/2 93/93/2 95/95/2

f 92/92/2 93/93/2 94/94/2

f 91/91/2 93/93/2 92/92/2

f 90/90/2 91/91/2 92/92/2

f 86/86/2 91/91/2 90/90/2

f 89/89/2 86/86/2 90/90/2

f 88/88/2 86/86/2 89/89/2

f 87/87/2 86/86/2 88/88/2

f 85/85/2 86/86/2 87/87/2

f 83/83/2 86/86/2 85/85/2

f 84/84/2 83/83/2 85/85/2

f 80/80/2 83/83/2 84/84/2

f 82/82/2 83/83/2 80/80/2

usemtl White
v 1450.32 53.5573 -1068.41
vt -5.23518 51.698
f 97/97/1 82/82/1 83/83/1

v 1459.93 53.366 -1062.64
vt 5.98387 51.5066
f 97/97/1 98/98/1 82/82/1

v 1450.43 51.9961 -1068.35
vt -5.10138 50.1367
f 99/99/1 98/98/1 97/97/1

v 1459.42 51.6116 -1062.95
vt 5.38393 49.7523
f 99/99/1 100/100/1 98/98/1

v 1459.4 49.7539 -1062.96
vt 5.36113 47.8946
f 99/99/1 101/101/1 100/100/1

v 1459.4 49.5048 -1062.96
vt 5.36113 47.6455
f 99/99/1 102/102/1 101/101/1

v 1459.4 49.2557 -1062.96
vt 5.36113 47.3964
f 99/99/1 103/103/1 102/102/1

f 61/61/1 103/103/1 99/99/1

v 1460.2 49.1278 -1062.48
vt 6.2948 47.2684
f 103/103/1 61/61/1 104/104/1

usemtl _Color_009_13
f 99/99/2 103/103/2 61/61/2

f 102/102/2 103/103/2 99/99/2

f 101/101/2 102/102/2 99/99/2

f 100/100/2 101/101/2 99/99/2

f 98/98/2 100/100/2 99/99/2

f 97/97/2 98/98/2 99/99/2

f 82/82/2 98/98/2 97/97/2

f 83/83/2 82/82/2 97/97/2

f 104/104/2 61/61/2 103/103/2

usemtl White
f 104/104/1 61/61/1 64/64/1

usemtl _Color_009_13
f 64/64/2 61/61/2 104/104/2

f 81/81/2 82/82/2 80/80/2

f 78/78/2 81/81/2 80/80/2

f 79/79/2 78/78/2 80/80/2

f 77/77/2 78/78/2 79/79/2

usemtl White
v 1463.06 61.2791 -1060.76
vt 9.62782 59.4198
f 79/79/1 77/77/1 105/105/1

usemtl _Color_009_13
f 105/105/2 77/77/2 79/79/2

usemtl White
v 1448.61 61.9759 -1069.44
vt -7.22766 60.1166
f 79/79/1 105/105/1 106/106/1

usemtl _Color_009_13
f 106/106/2 105/105/2 79/79/2

usemtl White
v 1462.61 61.7922 -1061.03
vt 9.11082 59.9328
f 106/106/1 105/105/1 107/107/1

usemtl _Color_009_13
f 107/107/2 105/105/2 106/106/2

usemtl White
v 1461.12 62.7154 -1061.92
vt 7.37478 60.8561
f 106/106/1 107/107/1 108/108/1

usemtl _Color_009_13
f 108/108/2 107/107/2 106/106/2

usemtl White
v 1449 62.5408 -1069.21
vt -6.773 60.6815
f 106/106/1 108/108/1 109/109/1

usemtl _Color_009_13
f 109/109/2 108/108/2 106/106/2

usemtl White
v 1450.16 63.4166 -1068.51
vt -5.41257 61.5572
f 109/109/1 108/108/1 110/110/1

usemtl _Color_009_13
f 110/110/2 108/108/2 109/109/2

usemtl White
v 1460.65 64.586 -1062.21
vt 6.81513 62.7266
f 110/110/1 108/108/1 111/111/1

usemtl _Color_009_13
f 111/111/2 108/108/2 110/110/2

usemtl White
v 1451.93 64.0777 -1067.45
vt -3.3577 62.2184
f 110/110/1 111/111/1 112/112/1

usemtl _Color_009_13
f 112/112/2 111/111/2 110/110/2

usemtl White
v 1452.1 71.0811 -1067.34
vt -3.15712 69.2218
f 112/112/1 111/111/1 113/113/1

usemtl _Color_009_13
f 113/113/2 111/111/2 112/112/2

usemtl White
v 1460.37 66.3708 -1062.37
vt 6.49943 64.5114
f 113/113/1 111/111/1 114/114/1

usemtl _Color_009_13
f 114/114/2 111/111/2 113/113/2

usemtl White
v 1460.04 69.0599 -1062.57
vt 6.10842 67.2006
f 113/113/1 114/114/1 115/115/1

usemtl _Color_009_13
f 115/115/2 114/114/2 113/113/2

usemtl White
v 1459.08 72.9609 -1063.15
vt 4.98655 71.1015
f 113/113/1 115/115/1 116/116/1

usemtl _Color_009_13
f 116/116/2 115/115/2 113/113/2

usemtl White
v 1452.69 73.0892 -1066.99
vt -2.46211 71.2299
f 113/113/1 116/116/1 117/117/1

usemtl _Color_009_13
f 117/117/2 116/116/2 113/113/2

usemtl White
v 1458.42 74.0003 -1063.55
vt 4.21409 72.1409
f 117/117/1 116/116/1 118/118/1

usemtl _Color_009_13
f 118/118/2 116/116/2 117/117/2

usemtl White
v 1453.57 74.5843 -1066.46
vt -1.43743 72.7249
f 117/117/1 118/118/1 119/119/1

usemtl _Color_009_13
f 119/119/2 118/118/2 117/117/2

usemtl White
v 1456.85 75.1811 -1064.49
vt 2.38242 73.3217
f 119/119/1 118/118/1 120/120/1

usemtl _Color_009_13
f 120/120/2 118/118/2 119/119/2

usemtl White
v 1454.7 75.4849 -1065.78
vt -0.119291 73.6255
f 119/119/1 120/120/1 121/121/1

usemtl _Color_009_13
f 121/121/2 120/120/2 119/119/2

usemtl White
v 1455.93 75.4849 -1065.04
vt 1.31821 73.6255
f 121/121/1 120/120/1 122/122/1

usemtl _Color_009_13
f 122/122/2 120/120/2 121/121/2

usemtl White
v 1442.53 54.7361 -1073.09
vt -14.3184 52.8768
f 85/85/1 123/123/1 87/87/1

v 1443.68 55.6872 -1072.4
vt -12.9802 53.8278
f 123/123/1 85/85/1 124/124/1

usemtl _Color_009_13
f 87/87/2 123/123/2 85/85/2

f 124/124/2 85/85/2 123/123/2

usemtl White
v 1440.66 55.6106 -1074.22
vt -16.5033 53.7513
f 123/123/1 124/124/1 125/125/1

usemtl _Color_009_13
f 125/125/2 124/124/2 123/123/2

usemtl White
v 1439.22 56.978 -1075.08
vt -18.1796 55.1187
f 125/125/1 124/124/1 126/126/1

usemtl _Color_009_13
f 126/126/2 124/124/2 125/125/2

usemtl White
v 1441.04 57.3518 -1073.99
vt -16.0622 55.4925
f 126/126/1 124/124/1 127/127/1

usemtl _Color_009_13
f 127/127/2 124/124/2 126/126/2

usemtl White
v 1441.57 58.0991 -1073.67
vt -15.4395 56.2398
f 127/127/1 124/124/1 128/128/1

usemtl _Color_009_13
f 128/128/2 124/124/2 127/127/2

usemtl White
v 1440.52 58.2955 -1074.3
vt -16.67 56.4361
f 127/127/1 128/128/1 129/129/1

usemtl _Color_009_13
f 129/129/2 128/128/2 127/127/2

usemtl White
v 1440.9 58.9855 -1074.07
vt -16.2167 57.1262
f 129/129/1 128/128/1 130/130/1

usemtl _Color_009_13
f 130/130/2 128/128/2 129/129/2

usemtl White
v 1439.86 59.0955 -1074.7
vt -17.4323 57.2361
f 129/129/1 130/130/1 131/131/1

usemtl _Color_009_13
f 131/131/2 130/130/2 129/129/2

usemtl White
v 1439.97 59.5937 -1074.63
vt -17.3077 57.7343
f 131/131/1 130/130/1 132/132/1

usemtl _Color_009_13
f 132/132/2 130/130/2 131/131/2

usemtl White
v 1439.91 59.3816 -1074.67
vt -17.3798 57.5222
f 131/131/1 132/132/1 133/133/1

usemtl _Color_009_13
f 133/133/2 132/132/2 131/131/2

usemtl White
v 1440.24 57.3092 -1074.47
vt -16.9956 55.4499
f 126/126/1 127/127/1 134/134/1

usemtl _Color_009_13
f 134/134/2 127/127/2 126/126/2

usemtl White
v 1440.82 57.3518 -1074.12
vt -16.3113 55.4925
f 127/127/1 135/135/1 134/134/1

v 1440.93 57.3518 -1074.06
vt -16.1868 55.4925
f 135/135/1 127/127/1 136/136/1

usemtl _Color_009_13
f 134/134/2 135/135/2 127/127/2

f 136/136/2 127/127/2 135/135/2

usemtl White
v 1439.01 57.6062 -1075.21
vt -18.4269 55.7469
f 134/134/1 137/137/1 126/126/1

v 1439.65 57.6009 -1074.83
vt -17.6814 55.7416
f 137/137/1 134/134/1 138/138/1

usemtl _Color_009_13
f 126/126/2 137/137/2 134/134/2

f 138/138/2 134/134/2 137/137/2

usemtl White
v 1438.75 59.7689 -1075.36
vt -18.7268 57.9096
f 137/137/1 138/138/1 139/139/1

usemtl _Color_009_13
f 139/139/2 138/138/2 137/137/2

usemtl White
v 1438.79 58.2238 -1075.34
vt -18.6779 56.3644
f 137/137/1 139/139/1 140/140/1

usemtl _Color_009_13
f 140/140/2 139/139/2 137/137/2

usemtl White
v 1438.3 59.7689 -1075.64
vt -19.2526 57.9096
f 140/140/1 139/139/1 141/141/1

usemtl _Color_009_13
f 141/141/2 139/139/2 140/140/2

usemtl White
v 1438.46 60.038 -1075.54
vt -19.0718 58.1786
f 141/141/1 139/139/1 142/142/1

usemtl _Color_009_13
f 142/142/2 139/139/2 141/141/2

g Mesh2 G_2d_silhouette__woman_talking1 Model

l 35 34

l 36 35

l 37 36

l 39 37

l 42 39

l 41 42

l 40 41

l 38 40

l 33 38

l 30 33

l 28 30

l 26 28

l 24 26

l 23 24

l 20 23

l 19 20

l 44 19

l 46 44

l 48 46

l 50 48

l 53 50

l 54 53

l 55 54

l 56 55

l 58 56

l 60 58

l 61 60

l 99 61

l 97 99

l 83 97

l 86 83

l 91 86

l 93 91

l 96 93

l 95 96

l 94 95

l 92 94

l 90 92

l 89 90

l 88 89

l 87 88

l 123 87

l 125 123

l 126 125

l 137 126

l 140 137

l 141 140

l 142 141

l 139 142

l 138 139

l 134 138

l 135 134

l 136 135

l 127 136

l 129 127

l 131 129

l 133 131

l 132 133

l 130 132

l 128 130

l 124 128

l 85 124

l 84 85

l 80 84

l 79 80

l 106 79

l 106 109

l 110 109

l 112 110

l 113 112

l 113 117

l 117 119

l 119 121

l 121 122

l 122 120

l 118 120

l 118 116

l 115 116

l 114 115

l 114 111

l 111 108

l 107 108

l 107 105

l 77 105

l 75 77

l 73 75

l 71 73

l 69 71

l 67 69

l 65 67

l 62 65

l 63 62

l 63 59

l 59 57

l 57 52

l 52 51

l 49 51

l 47 49

l 45 47

l 43 45

l 16 43

l 12 16

l 8 12

l 6 8

l 1 6

l 3 1

l 2 3

l 4 2

l 5 4

l 7 5

l 9 7

l 10 9

l 11 10

l 13 11

l 14 13

l 15 14

l 17 15

l 18 17

l 21 18

l 22 21

l 25 22

l 27 25

l 29 27

l 31 29

l 32 31

l 34 32

g Mesh3 G_2d_silhouette__woman_talking1 Model

l 72 70

l 74 72

l 76 74

l 78 76

l 81 78

l 82 81

l 98 82

l 100 98

l 101 100

l 102 101

l 103 102

l 104 103

l 64 104

l 66 64

l 68 66

l 70 68

